# Made in Blockbench 4.12.4
mtllib construct.mtl

o cube
v -0.3125 0.875 0.4375
v -0.3125 0.875 0.3125
v -0.3125 0 0.4375
v -0.3125 0 0.3125
v -0.4375 0.875 0.4375
v -0.4375 0.875 0.3125
v -0.4375 0 0.4375
v -0.4375 0 0.3125
vt 0.13991683991683995 0.6900666900666901
vt 0.19064449064449063 0.6900666900666901
vt 0.19064449064449063 0.8374868374868375
vt 0.13991683991683995 0.6900666900666901
vt 0.19064449064449063 0.8374868374868375
vt 0.13991683991683995 0.8374868374868375
vt 0.19064449064449063 0.6690066690066689
vt 0.2413721413721414 0.6690066690066689
vt 0.2413721413721414 0.8164268164268165
vt 0.19064449064449063 0.6690066690066689
vt 0.2413721413721414 0.8164268164268165
vt 0.19064449064449063 0.8164268164268165
vt 0.4461538461538462 0.9343629343629344
vt 0.46153846153846156 0.9343629343629344
vt 0.46153846153846156 0.9420849420849421
vt 0.4461538461538462 0.9343629343629344
vt 0.46153846153846156 0.9420849420849421
vt 0.4461538461538462 0.9420849420849421
vt 0.4846153846153846 0.8883818883818884
vt 0.5353430353430354 0.8883818883818884
vt 0.5353430353430354 0.9094419094419095
vt 0.4846153846153846 0.8883818883818884
vt 0.5353430353430354 0.9094419094419095
vt 0.4846153846153846 0.9094419094419095
vt 0.2413721413721414 0.6479466479466479
vt 0.2920997920997921 0.6479466479466479
vt 0.2920997920997921 0.7953667953667953
vt 0.2413721413721414 0.6479466479466479
vt 0.2920997920997921 0.7953667953667953
vt 0.2413721413721414 0.7953667953667953
vt 0.2920997920997921 0.6268866268866269
vt 0.3428274428274428 0.6268866268866269
vt 0.3428274428274428 0.7743067743067742
vt 0.2920997920997921 0.6268866268866269
vt 0.3428274428274428 0.7743067743067742
vt 0.2920997920997921 0.7743067743067742
vn 1 0 0
vn 1 0 0
vn -1 0 0
vn -1 0 0
vn 0 1 0
vn 0 1 0
vn 0 -1 0
vn 0 -1 0
vn 0 0 1
vn 0 0 1
vn 0 0 -1
vn 0 0 -1
usemtl m_e5238c29-e9aa-d67f-00ad-c17d3810e393
f 3/1/1 4/2/1 2/3/1
f 3/4/2 2/5/2 1/6/2
f 8/7/3 7/8/3 5/9/3
f 8/10/4 5/11/4 6/12/4
f 5/13/5 1/14/5 2/15/5
f 5/16/6 2/17/6 6/18/6
f 8/19/7 4/20/7 3/21/7
f 8/22/8 3/23/8 7/24/8
f 7/25/9 3/26/9 1/27/9
f 7/28/10 1/29/10 5/30/10
f 4/31/11 8/32/11 6/33/11
f 4/34/12 6/35/12 2/36/12
o cube
v 0.4375 0.625 -0.3125
v 0.4375 0.625 -0.4375
v 0.4375 0 -0.3125
v 0.4375 0 -0.4375
v 0.3125 0.625 -0.3125
v 0.3125 0.625 -0.4375
v 0.3125 0 -0.3125
v 0.3125 0 -0.4375
vt 0.19064449064449063 0.5637065637065637
vt 0.2413721413721414 0.5637065637065637
vt 0.2413721413721414 0.6690066690066689
vt 0.19064449064449063 0.5637065637065637
vt 0.2413721413721414 0.6690066690066689
vt 0.19064449064449063 0.6690066690066689
vt 0.495010395010395 0.5637065637065637
vt 0.5457380457380456 0.5637065637065637
vt 0.5457380457380456 0.6690066690066689
vt 0.495010395010395 0.5637065637065637
vt 0.5457380457380456 0.6690066690066689
vt 0.495010395010395 0.6690066690066689
vt 0.46153846153846156 0.9343629343629344
vt 0.47692307692307695 0.9343629343629344
vt 0.47692307692307695 0.9420849420849421
vt 0.46153846153846156 0.9343629343629344
vt 0.47692307692307695 0.9420849420849421
vt 0.46153846153846156 0.9420849420849421
vt 0.5353430353430354 0.8883818883818884
vt 0.5860706860706861 0.8883818883818884
vt 0.5860706860706861 0.9094419094419095
vt 0.5353430353430354 0.8883818883818884
vt 0.5860706860706861 0.9094419094419095
vt 0.5353430353430354 0.9094419094419095
vt 0.6979209979209979 0.5637065637065637
vt 0.7486486486486487 0.5637065637065637
vt 0.7486486486486487 0.6690066690066689
vt 0.6979209979209979 0.5637065637065637
vt 0.7486486486486487 0.6690066690066689
vt 0.6979209979209979 0.6690066690066689
vt 0.9261954261954262 0.7953667953667953
vt 0.9769230769230769 0.7953667953667953
vt 0.9769230769230769 0.9006669006669006
vt 0.9261954261954262 0.7953667953667953
vt 0.9769230769230769 0.9006669006669006
vt 0.9261954261954262 0.9006669006669006
vn 1 0 0
vn 1 0 0
vn -1 0 0
vn -1 0 0
vn 0 1 0
vn 0 1 0
vn 0 -1 0
vn 0 -1 0
vn 0 0 1
vn 0 0 1
vn 0 0 -1
vn 0 0 -1
usemtl m_e5238c29-e9aa-d67f-00ad-c17d3810e393
f 11/37/13 12/38/13 10/39/13
f 11/40/14 10/41/14 9/42/14
f 16/43/15 15/44/15 13/45/15
f 16/46/16 13/47/16 14/48/16
f 13/49/17 9/50/17 10/51/17
f 13/52/18 10/53/18 14/54/18
f 16/55/19 12/56/19 11/57/19
f 16/58/20 11/59/20 15/60/20
f 15/61/21 11/62/21 9/63/21
f 15/64/22 9/65/22 13/66/22
f 12/67/23 16/68/23 14/69/23
f 12/70/24 14/71/24 10/72/24
o cube
v -0.3125 0.75 -0.3125
v -0.3125 0.75 -0.4375
v -0.3125 0 -0.3125
v -0.3125 0 -0.4375
v -0.4375 0.75 -0.3125
v -0.4375 0.75 -0.4375
v -0.4375 0 -0.3125
v -0.4375 0 -0.4375
vt 0.038461538461538464 0.5952965952965953
vt 0.08918918918918921 0.5952965952965953
vt 0.08918918918918921 0.7216567216567216
vt 0.038461538461538464 0.5952965952965953
vt 0.08918918918918921 0.7216567216567216
vt 0.038461538461538464 0.7216567216567216
vt 0.08918918918918921 0.5742365742365743
vt 0.13991683991683995 0.5742365742365743
vt 0.13991683991683995 0.7005967005967007
vt 0.08918918918918921 0.5742365742365743
vt 0.13991683991683995 0.7005967005967007
vt 0.08918918918918921 0.7005967005967007
vt 0.4461538461538462 0.9189189189189189
vt 0.46153846153846156 0.9189189189189189
vt 0.46153846153846156 0.9266409266409267
vt 0.4461538461538462 0.9189189189189189
vt 0.46153846153846156 0.9266409266409267
vt 0.4461538461538462 0.9266409266409267
vt 0.5860706860706861 0.9094419094419095
vt 0.6367983367983368 0.9094419094419095
vt 0.6367983367983368 0.9305019305019305
vt 0.5860706860706861 0.9094419094419095
vt 0.6367983367983368 0.9305019305019305
vt 0.5860706860706861 0.9305019305019305
vt 0.4442827442827443 0.5742365742365743
vt 0.495010395010395 0.5742365742365743
vt 0.495010395010395 0.7005967005967007
vt 0.4442827442827443 0.5742365742365743
vt 0.495010395010395 0.7005967005967007
vt 0.4442827442827443 0.7005967005967007
vt 0.8247401247401248 0.5742365742365743
vt 0.8754677754677754 0.5742365742365743
vt 0.8754677754677754 0.7005967005967007
vt 0.8247401247401248 0.5742365742365743
vt 0.8754677754677754 0.7005967005967007
vt 0.8247401247401248 0.7005967005967007
vn 1 0 0
vn 1 0 0
vn -1 0 0
vn -1 0 0
vn 0 1 0
vn 0 1 0
vn 0 -1 0
vn 0 -1 0
vn 0 0 1
vn 0 0 1
vn 0 0 -1
vn 0 0 -1
usemtl m_e5238c29-e9aa-d67f-00ad-c17d3810e393
f 19/73/25 20/74/25 18/75/25
f 19/76/26 18/77/26 17/78/26
f 24/79/27 23/80/27 21/81/27
f 24/82/28 21/83/28 22/84/28
f 21/85/29 17/86/29 18/87/29
f 21/88/30 18/89/30 22/90/30
f 24/91/31 20/92/31 19/93/31
f 24/94/32 19/95/32 23/96/32
f 23/97/33 19/98/33 17/99/33
f 23/100/34 17/101/34 21/102/34
f 20/103/35 24/104/35 22/105/35
f 20/106/36 22/107/36 18/108/36
o cube
v 0.4375 0.75 0.4375
v 0.4375 0.75 0.3125
v 0.4375 0 0.4375
v 0.4375 0 0.3125
v 0.3125 0.75 0.4375
v 0.3125 0.75 0.3125
v 0.3125 0 0.4375
v 0.3125 0 0.3125
vt 0.13991683991683995 0.5637065637065637
vt 0.19064449064449063 0.5637065637065637
vt 0.19064449064449063 0.6900666900666901
vt 0.13991683991683995 0.5637065637065637
vt 0.19064449064449063 0.6900666900666901
vt 0.13991683991683995 0.6900666900666901
vt 0.7740124740124741 0.5637065637065637
vt 0.8247401247401248 0.5637065637065637
vt 0.8247401247401248 0.6900666900666901
vt 0.7740124740124741 0.5637065637065637
vt 0.8247401247401248 0.6900666900666901
vt 0.7740124740124741 0.6900666900666901
vt 0.46153846153846156 0.9189189189189189
vt 0.47692307692307695 0.9189189189189189
vt 0.47692307692307695 0.9266409266409267
vt 0.46153846153846156 0.9189189189189189
vt 0.47692307692307695 0.9266409266409267
vt 0.46153846153846156 0.9266409266409267
vt 0.5860706860706861 0.8883818883818884
vt 0.6367983367983368 0.8883818883818884
vt 0.6367983367983368 0.9094419094419095
vt 0.5860706860706861 0.8883818883818884
vt 0.6367983367983368 0.9094419094419095
vt 0.5860706860706861 0.9094419094419095
vt 0.8754677754677754 0.7743067743067742
vt 0.9261954261954262 0.7743067743067742
vt 0.9261954261954262 0.9006669006669006
vt 0.8754677754677754 0.7743067743067742
vt 0.9261954261954262 0.9006669006669006
vt 0.8754677754677754 0.9006669006669006
vt 0.8754677754677754 0.5952965952965953
vt 0.9261954261954262 0.5952965952965953
vt 0.9261954261954262 0.7216567216567216
vt 0.8754677754677754 0.5952965952965953
vt 0.9261954261954262 0.7216567216567216
vt 0.8754677754677754 0.7216567216567216
vn 1 0 0
vn 1 0 0
vn -1 0 0
vn -1 0 0
vn 0 1 0
vn 0 1 0
vn 0 -1 0
vn 0 -1 0
vn 0 0 1
vn 0 0 1
vn 0 0 -1
vn 0 0 -1
usemtl m_e5238c29-e9aa-d67f-00ad-c17d3810e393
f 27/109/37 28/110/37 26/111/37
f 27/112/38 26/113/38 25/114/38
f 32/115/39 31/116/39 29/117/39
f 32/118/40 29/119/40 30/120/40
f 29/121/41 25/122/41 26/123/41
f 29/124/42 26/125/42 30/126/42
f 32/127/43 28/128/43 27/129/43
f 32/130/44 27/131/44 31/132/44
f 31/133/45 27/134/45 25/135/45
f 31/136/46 25/137/46 29/138/46
f 28/139/47 32/140/47 30/141/47
f 28/142/48 30/143/48 26/144/48
o cube
v -0.314720869120796 0.6218592167691144 -0.3125
v -0.314720869120796 0.6218592167691144 -0.4375
v 0.3093592167691146 0.09152913087920392 -0.3125
v 0.3093592167691146 0.09152913087920392 -0.4375
v -0.3093592167691146 0.5334708691207961 -0.3125
v -0.3093592167691146 0.5334708691207961 -0.4375
v 0.314720869120796 0.0031407832308855688 -0.3125
v 0.314720869120796 0.0031407832308855688 -0.4375
vt 0.3428274428274428 0.6257946647946647
vt 0.39355509355509355 0.6257946647946647
vt 0.39355509355509355 0.7637767637767637
vt 0.3428274428274428 0.6257946647946647
vt 0.39355509355509355 0.7637767637767637
vt 0.3428274428274428 0.7637767637767637
vt 0.39355509355509355 0.5939803439803439
vt 0.4442827442827443 0.5939803439803439
vt 0.4442827442827443 0.731962442962443
vt 0.39355509355509355 0.5939803439803439
vt 0.4442827442827443 0.731962442962443
vt 0.39355509355509355 0.731962442962443
vt 0.5353430353430354 0.8524018954018954
vt 0.5353430353430354 0.8673218673218673
vt 0.4846153846153846 0.8673218673218673
vt 0.5353430353430354 0.8524018954018954
vt 0.4846153846153846 0.8673218673218673
vt 0.4846153846153846 0.8524018954018954
vt 0.6875259875259876 0.9147069147069147
vt 0.6875259875259876 0.9296268866268866
vt 0.6367983367983368 0.9296268866268866
vt 0.6875259875259876 0.9147069147069147
vt 0.6367983367983368 0.9296268866268866
vt 0.6367983367983368 0.9147069147069147
vt 0.11609259875259875 0.7098483678483678
vt 0.13991683991683995 0.72101755001755
vt 0.11301343035343035 0.8585468585468585
vt 0.11609259875259875 0.7098483678483678
vt 0.11301343035343035 0.8585468585468585
vt 0.08918918918918921 0.8473776763776764
vt 0.038461538461538464 0.742077571077571
vt 0.06228577962577963 0.7309083889083889
vt 0.08918918918918921 0.8684376974376974
vt 0.038461538461538464 0.742077571077571
vt 0.08918918918918921 0.8684376974376974
vt 0.06536494802494802 0.8796068796068796
vn 0.6475505994673405 0.7620224544785331 0
vn 0.6475505994673405 0.7620224544785331 0
vn -0.6475505994673405 -0.7620224544785331 0
vn -0.6475505994673405 -0.7620224544785331 0
vn -0.9981652337122058 -0.06054887454162694 0
vn -0.9981652337122058 -0.06054887454162694 0
vn 0.9981652337122058 0.06054887454162694 0
vn 0.9981652337122058 0.06054887454162694 0
vn 0 0 1
vn 0 0 1
vn 0 0 -1
vn 0 0 -1
usemtl m_e5238c29-e9aa-d67f-00ad-c17d3810e393
f 35/145/49 36/146/49 34/147/49
f 35/148/50 34/149/50 33/150/50
f 40/151/51 39/152/51 37/153/51
f 40/154/52 37/155/52 38/156/52
f 37/157/53 33/158/53 34/159/53
f 37/160/54 34/161/54 38/162/54
f 40/163/55 36/164/55 35/165/55
f 40/166/56 35/167/56 39/168/56
f 39/169/57 35/170/57 33/171/57
f 39/172/58 33/173/58 37/174/58
f 36/175/59 40/176/59 38/177/59
f 36/178/60 38/179/60 34/180/60
o cube
v 0.5 0.8125 0.5
v 0.5 0.625 -0.5
v 0.5 0.75 0.5
v 0.5 0.5625 -0.5
v -0.5 0.9375 0.5
v -0.5 0.8125 -0.5
v -0.5 0.875 0.5
v -0.5 0.75 -0.5
vt 0.011923176923048173 0.025253993734073776
vt 0.9503847153845866 0.025253935819019246
vt 0.9503847153845866 0.4885742871703457
vt 0.011923176923048173 0.025253993734073776
vt 0.9503847153845866 0.4885742871703457
vt 0.011923176923048173 0.48857437404292814
vt 0.011923176923048173 0.48857434508540043
vt 0.9503847153845866 0.4885742582128184
vt 0.9503847153845866 0.02525390686149187
vt 0.011923176923048173 0.48857434508540043
vt 0.9503847153845866 0.02525390686149187
vt 0.011923176923048173 0.02525396477654651
vt 0.9503847153845866 0.02525390686149187
vt 0.9503847153845866 0.4885742582128184
vt 0.9503847153845866 0.4885742871703457
vt 0.9503847153845866 0.02525390686149187
vt 0.9503847153845866 0.4885742871703457
vt 0.9503847153845866 0.025253935819019246
vt 0.011923176923048173 0.48857434508540043
vt 0.011923176923048173 0.02525396477654651
vt 0.011923176923048173 0.025253993734073776
vt 0.011923176923048173 0.48857434508540043
vt 0.011923176923048173 0.025253993734073776
vt 0.011923176923048173 0.48857437404292814
vt 0.011923176923048173 0.02525396477654651
vt 0.9503847153845866 0.02525390686149187
vt 0.9503847153845866 0.025253935819019246
vt 0.011923176923048173 0.02525396477654651
vt 0.9503847153845866 0.025253935819019246
vt 0.011923176923048173 0.025253993734073776
vt 0.9503847153845866 0.4885742582128184
vt 0.011923176923048173 0.48857434508540043
vt 0.011923176923048173 0.48857437404292814
vt 0.9503847153845866 0.4885742582128184
vt 0.011923176923048173 0.48857437404292814
vt 0.9503847153845866 0.4885742871703457
vn 0.12194215216993849 0.9755372173595079 -0.18291322825490772
vn 0.18291322825490772 0.9755372173595079 -0.12194215216993849
vn -0.1812366279990531 -0.9665953493282832 0.1812366279990531
vn -0.12309149097933275 -0.984731927834662 0.12309149097933275
vn 1 0 0
vn 1 0 0
vn -1 0 0
vn -1 0 0
vn 0 0 1
vn 0 0 1
vn 0 0 -1
vn 0 0 -1
usemtl m_e5238c29-e9aa-d67f-00ad-c17d3810e393
f 45/181/61 41/182/61 42/183/61
f 45/184/62 42/185/62 46/186/62
f 48/187/63 44/188/63 43/189/63
f 48/190/64 43/191/64 47/192/64
f 43/193/65 44/194/65 42/195/65
f 43/196/66 42/197/66 41/198/66
f 48/199/67 47/200/67 45/201/67
f 48/202/68 45/203/68 46/204/68
f 47/205/69 43/206/69 41/207/69
f 47/208/70 41/209/70 45/210/70
f 44/211/71 48/212/71 46/213/71
f 44/214/72 46/215/72 42/216/72